<svg width="1440.399951171875px" height="233.08001708984375px" xmlns="http://www.w3.org/2000/svg" viewBox="-470.1999755859375 -41.540008544921875 1440.399951171875 233.08001708984375" style="background: rgba(0, 0, 0, 0) none repeat scroll 0% 0%;" preserveAspectRatio="xMidYMid"><defs><linearGradient id="editing-gradient-gradient" x1="0" x2="1" y1="0.5" y2="0.5" gradientUnits="objectBoundingBox"><stop offset="0" stop-color="#fed136"></stop><stop offset="1" stop-color="#fed136"></stop></linearGradient></defs><g><g transform="translate(-278.320011138916, 123.19500160217285)"><path d="M71.04-46.21L71.04-46.21Q79.87-44.29 84.67-38.59L84.67-38.59L84.67-38.59Q89.47-32.90 89.47-23.94L89.47-23.94L89.47-23.94Q89.47-12.42 80.96-6.21L80.96-6.21L80.96-6.21Q72.45 0 55.81 0L55.81 0L14.59 0L14.59-89.60L53.25-89.60L53.25-89.60Q68.22-89.60 76.48-83.58L76.48-83.58L76.48-83.58Q84.74-77.57 84.74-66.56L84.74-66.56L84.74-66.56Q84.74-59.14 81.09-53.95L81.09-53.95L81.09-53.95Q77.44-48.77 71.04-46.21L71.04-46.21ZM52.61-81.79L24.06-81.79L24.06-49.28L52.61-49.28L52.61-49.28Q63.49-49.28 69.38-53.44L69.38-53.44L69.38-53.44Q75.26-57.60 75.26-65.54L75.26-65.54L75.26-65.54Q75.26-73.47 69.38-77.63L69.38-77.63L69.38-77.63Q63.49-81.79 52.61-81.79L52.61-81.79ZM55.68-7.81L55.68-7.81Q67.71-7.81 73.86-11.90L73.86-11.90L73.86-11.90Q80-16 80-24.70L80-24.70L80-24.70Q80-41.47 55.68-41.47L55.68-41.47L24.06-41.47L24.06-7.81L55.68-7.81ZM132.74-67.84L132.74-67.84Q145.92-67.84 152.96-61.25L152.96-61.25L152.96-61.25Q160-54.66 160-41.73L160-41.73L160 0L151.30 0L151.30-10.50L151.30-10.50Q148.22-5.25 142.27-2.30L142.27-2.30L142.27-2.30Q136.32 0.64 128.13 0.64L128.13 0.64L128.13 0.64Q116.86 0.64 110.21-4.74L110.21-4.74L110.21-4.74Q103.55-10.11 103.55-18.94L103.55-18.94L103.55-18.94Q103.55-27.52 109.76-32.77L109.76-32.77L109.76-32.77Q115.97-38.02 129.54-38.02L129.54-38.02L150.91-38.02L150.91-42.11L150.91-42.11Q150.91-50.82 146.05-55.36L146.05-55.36L146.05-55.36Q141.18-59.90 131.84-59.90L131.84-59.90L131.84-59.90Q125.44-59.90 119.55-57.79L119.55-57.79L119.55-57.79Q113.66-55.68 109.44-51.97L109.44-51.97L105.34-58.75L105.34-58.75Q110.46-63.10 117.63-65.47L117.63-65.47L117.63-65.47Q124.80-67.84 132.74-67.84L132.74-67.84ZM129.54-6.53L129.54-6.53Q137.22-6.53 142.72-10.05L142.72-10.05L142.72-10.05Q148.22-13.57 150.91-20.22L150.91-20.22L150.91-31.23L129.79-31.23L129.79-31.23Q112.51-31.23 112.51-19.20L112.51-19.20L112.51-19.20Q112.51-13.31 116.99-9.92L116.99-9.92L116.99-9.92Q121.47-6.53 129.54-6.53L129.54-6.53ZM193.41-54.14L193.41-54.14Q196.61-60.93 202.94-64.38L202.94-64.38L202.94-64.38Q209.28-67.84 218.62-67.84L218.62-67.84L218.62-59.01L216.45-59.14L216.45-59.14Q205.82-59.14 199.81-52.61L199.81-52.61L199.81-52.61Q193.79-46.08 193.79-34.30L193.79-34.30L193.79 0L184.70 0L184.70-67.33L193.41-67.33L193.41-54.14ZM288.13 0L260.99-33.79L245.12-19.20L245.12 0L236.03 0L236.03-94.98L245.12-94.98L245.12-30.59L285.31-67.33L296.58-67.33L267.78-39.81L299.26 0L288.13 0ZM331.01 0.64L331.01 0.64Q322.82 0.64 315.33-1.73L315.33-1.73L315.33-1.73Q307.84-4.10 303.62-7.68L303.62-7.68L307.71-14.85L307.71-14.85Q311.94-11.52 318.34-9.41L318.34-9.41L318.34-9.41Q324.74-7.30 331.65-7.30L331.65-7.30L331.65-7.30Q340.86-7.30 345.28-10.18L345.28-10.18L345.28-10.18Q349.70-13.06 349.70-18.30L349.70-18.30L349.70-18.30Q349.70-22.02 347.26-24.13L347.26-24.13L347.26-24.13Q344.83-26.24 341.12-27.33L341.12-27.33L341.12-27.33Q337.41-28.42 331.26-29.44L331.26-29.44L331.26-29.44Q323.07-30.98 318.08-32.58L318.08-32.58L318.08-32.58Q313.09-34.18 309.57-38.02L309.57-38.02L309.57-38.02Q306.05-41.86 306.05-48.64L306.05-48.64L306.05-48.64Q306.05-57.09 313.09-62.46L313.09-62.46L313.09-62.46Q320.13-67.84 332.67-67.84L332.67-67.84L332.67-67.84Q339.20-67.84 345.73-66.11L345.73-66.11L345.73-66.11Q352.26-64.38 356.48-61.57L356.48-61.57L352.51-54.27L352.51-54.27Q344.19-60.03 332.67-60.03L332.67-60.03L332.67-60.03Q323.97-60.03 319.55-56.96L319.55-56.96L319.55-56.96Q315.14-53.89 315.14-48.90L315.14-48.90L315.14-48.90Q315.14-45.06 317.63-42.75L317.63-42.75L317.63-42.75Q320.13-40.45 323.84-39.36L323.84-39.36L323.84-39.36Q327.55-38.27 334.08-37.12L334.08-37.12L334.08-37.12Q342.14-35.58 347.01-34.05L347.01-34.05L347.01-34.05Q351.87-32.51 355.33-28.80L355.33-28.80L355.33-28.80Q358.78-25.09 358.78-18.56L358.78-18.56L358.78-18.56Q358.78-9.73 351.42-4.54L351.42-4.54L351.42-4.54Q344.06 0.64 331.01 0.64L331.01 0.64ZM480.38-4.61L475.14 1.41L462.72-11.39L462.72-11.39Q451.33 0.77 432.77 0.77L432.77 0.77L432.77 0.77Q424.06 0.77 417.22-2.11L417.22-2.11L417.22-2.11Q410.37-4.99 406.53-10.18L406.53-10.18L406.53-10.18Q402.69-15.36 402.69-22.02L402.69-22.02L402.69-22.02Q402.69-30.08 407.81-36.48L407.81-36.48L407.81-36.48Q412.93-42.88 425.22-49.92L425.22-49.92L425.22-49.92Q418.82-56.58 416.38-61.25L416.38-61.25L416.38-61.25Q413.95-65.92 413.95-71.17L413.95-71.17L413.95-71.17Q413.95-79.74 420.10-84.99L420.10-84.99L420.10-84.99Q426.24-90.24 436.61-90.24L436.61-90.24L436.61-90.24Q446.21-90.24 451.84-85.50L451.84-85.50L451.84-85.50Q457.47-80.77 457.47-72.45L457.47-72.45L457.47-72.45Q457.47-65.79 452.99-60.48L452.99-60.48L452.99-60.48Q448.51-55.17 437.50-48.77L437.50-48.77L462.08-23.42L462.08-23.42Q466.18-30.72 468.10-40.70L468.10-40.70L475.52-38.40L475.52-38.40Q473.09-26.37 467.58-17.79L467.58-17.79L480.38-4.61ZM436.61-83.46L436.61-83.46Q429.95-83.46 426.18-80.13L426.18-80.13L426.18-80.13Q422.40-76.80 422.40-71.30L422.40-71.30L422.40-71.30Q422.40-67.33 424.45-63.74L424.45-63.74L424.45-63.74Q426.50-60.16 432.51-54.02L432.51-54.02L432.51-54.02Q442.24-59.65 445.95-63.62L445.95-63.62L445.95-63.62Q449.66-67.58 449.66-72.32L449.66-72.32L449.66-72.32Q449.66-77.44 446.21-80.45L446.21-80.45L446.21-80.45Q442.75-83.46 436.61-83.46L436.61-83.46ZM433.28-6.78L433.28-6.78Q448.13-6.78 457.34-16.90L457.34-16.90L430.34-44.67L430.34-44.67Q419.71-38.66 415.68-33.79L415.68-33.79L415.68-33.79Q411.65-28.93 411.65-22.91L411.65-22.91L411.65-22.91Q411.65-15.62 417.60-11.20L417.60-11.20L417.60-11.20Q423.55-6.78 433.28-6.78L433.28-6.78ZM586.62-46.21L586.62-46.21Q595.46-44.29 600.26-38.59L600.26-38.59L600.26-38.59Q605.06-32.90 605.06-23.94L605.06-23.94L605.06-23.94Q605.06-12.42 596.54-6.21L596.54-6.21L596.54-6.21Q588.03 0 571.39 0L571.39 0L530.18 0L530.18-89.60L568.83-89.60L568.83-89.60Q583.81-89.60 592.06-83.58L592.06-83.58L592.06-83.58Q600.32-77.57 600.32-66.56L600.32-66.56L600.32-66.56Q600.32-59.14 596.67-53.95L596.67-53.95L596.67-53.95Q593.02-48.77 586.62-46.21L586.62-46.21ZM568.19-81.79L539.65-81.79L539.65-49.28L568.19-49.28L568.19-49.28Q579.07-49.28 584.96-53.44L584.96-53.44L584.96-53.44Q590.85-57.60 590.85-65.54L590.85-65.54L590.85-65.54Q590.85-73.47 584.96-77.63L584.96-77.63L584.96-77.63Q579.07-81.79 568.19-81.79L568.19-81.79ZM571.26-7.81L571.26-7.81Q583.30-7.81 589.44-11.90L589.44-11.90L589.44-11.90Q595.58-16 595.58-24.70L595.58-24.70L595.58-24.70Q595.58-41.47 571.26-41.47L571.26-41.47L539.65-41.47L539.65-7.81L571.26-7.81ZM676.35-67.33L685.44-67.33L685.44 0L676.74 0L676.74-12.29L676.74-12.29Q673.15-6.14 666.88-2.75L666.88-2.75L666.88-2.75Q660.61 0.64 652.54 0.64L652.54 0.64L652.54 0.64Q639.36 0.64 631.74-6.72L631.74-6.72L631.74-6.72Q624.13-14.08 624.13-28.29L624.13-28.29L624.13-67.33L633.22-67.33L633.22-29.18L633.22-29.18Q633.22-18.56 638.46-13.06L638.46-13.06L638.46-13.06Q643.71-7.55 653.44-7.55L653.44-7.55L653.44-7.55Q664.06-7.55 670.21-14.02L670.21-14.02L670.21-14.02Q676.35-20.48 676.35-32L676.35-32L676.35-67.33ZM745.60-67.84L745.60-67.84Q755.07-67.84 762.75-63.55L762.75-63.55L762.75-63.55Q770.43-59.26 774.78-51.46L774.78-51.46L774.78-51.46Q779.14-43.65 779.14-33.66L779.14-33.66L779.14-33.66Q779.14-23.68 774.78-15.87L774.78-15.87L774.78-15.87Q770.43-8.06 762.75-3.71L762.75-3.71L762.75-3.71Q755.07 0.64 745.60 0.64L745.60 0.64L745.60 0.64Q737.15 0.64 730.43-2.94L730.43-2.94L730.43-2.94Q723.71-6.53 719.62-13.31L719.62-13.31L719.62 0L710.91 0L710.91-94.98L720-94.98L720-54.53L720-54.53Q724.22-61.06 730.82-64.45L730.82-64.45L730.82-64.45Q737.41-67.84 745.60-67.84L745.60-67.84ZM744.96-7.42L744.96-7.42Q752-7.42 757.76-10.69L757.76-10.69L757.76-10.69Q763.52-13.95 766.78-19.97L766.78-19.97L766.78-19.97Q770.05-25.98 770.05-33.66L770.05-33.66L770.05-33.66Q770.05-41.34 766.78-47.36L766.78-47.36L766.78-47.36Q763.52-53.38 757.76-56.64L757.76-56.64L757.76-56.64Q752-59.90 744.96-59.90L744.96-59.90L744.96-59.90Q737.79-59.90 732.10-56.64L732.10-56.64L732.10-56.64Q726.40-53.38 723.14-47.36L723.14-47.36L723.14-47.36Q719.87-41.34 719.87-33.66L719.87-33.66L719.87-33.66Q719.87-25.98 723.14-19.97L723.14-19.97L723.14-19.97Q726.40-13.95 732.10-10.69L732.10-10.69L732.10-10.69Q737.79-7.42 744.96-7.42L744.96-7.42ZM832.38-67.84L832.38-67.84Q841.86-67.84 849.54-63.55L849.54-63.55L849.54-63.55Q857.22-59.26 861.57-51.46L861.57-51.46L861.57-51.46Q865.92-43.65 865.92-33.66L865.92-33.66L865.92-33.66Q865.92-23.68 861.57-15.87L861.57-15.87L861.57-15.87Q857.22-8.06 849.54-3.71L849.54-3.71L849.54-3.71Q841.86 0.64 832.38 0.64L832.38 0.64L832.38 0.64Q823.94 0.64 817.22-2.94L817.22-2.94L817.22-2.94Q810.50-6.53 806.40-13.31L806.40-13.31L806.40 0L797.70 0L797.70-94.98L806.78-94.98L806.78-54.53L806.78-54.53Q811.01-61.06 817.60-64.45L817.60-64.45L817.60-64.45Q824.19-67.84 832.38-67.84L832.38-67.84ZM831.74-7.42L831.74-7.42Q838.78-7.42 844.54-10.69L844.54-10.69L844.54-10.69Q850.30-13.95 853.57-19.97L853.57-19.97L853.57-19.97Q856.83-25.98 856.83-33.66L856.83-33.66L856.83-33.66Q856.83-41.34 853.57-47.36L853.57-47.36L853.57-47.36Q850.30-53.38 844.54-56.64L844.54-56.64L844.54-56.64Q838.78-59.90 831.74-59.90L831.74-59.90L831.74-59.90Q824.58-59.90 818.88-56.64L818.88-56.64L818.88-56.64Q813.18-53.38 809.92-47.36L809.92-47.36L809.92-47.36Q806.66-41.34 806.66-33.66L806.66-33.66L806.66-33.66Q806.66-25.98 809.92-19.97L809.92-19.97L809.92-19.97Q813.18-13.95 818.88-10.69L818.88-10.69L818.88-10.69Q824.58-7.42 831.74-7.42L831.74-7.42ZM884.48 0L884.48-94.98L893.57-94.98L893.57 0L884.48 0ZM977.66-33.66L977.54-30.85L921.22-30.85L921.22-30.85Q921.98-20.35 929.28-13.89L929.28-13.89L929.28-13.89Q936.58-7.42 947.71-7.42L947.71-7.42L947.71-7.42Q953.98-7.42 959.23-9.66L959.23-9.66L959.23-9.66Q964.48-11.90 968.32-16.26L968.32-16.26L973.44-10.37L973.44-10.37Q968.96-4.99 962.24-2.18L962.24-2.18L962.24-2.18Q955.52 0.64 947.46 0.64L947.46 0.64L947.46 0.64Q937.09 0.64 929.09-3.78L929.09-3.78L929.09-3.78Q921.09-8.19 916.61-16L916.61-16L916.61-16Q912.13-23.81 912.13-33.66L912.13-33.66L912.13-33.66Q912.13-43.52 916.42-51.33L916.42-51.33L916.42-51.33Q920.70-59.14 928.19-63.49L928.19-63.49L928.19-63.49Q935.68-67.84 945.02-67.84L945.02-67.84L945.02-67.84Q954.37-67.84 961.79-63.49L961.79-63.49L961.79-63.49Q969.22-59.14 973.44-51.39L973.44-51.39L973.44-51.39Q977.66-43.65 977.66-33.66L977.66-33.66ZM945.02-60.03L945.02-60.03Q935.30-60.03 928.70-53.82L928.70-53.82L928.70-53.82Q922.11-47.62 921.22-37.63L921.22-37.63L968.96-37.63L968.96-37.63Q968.06-47.62 961.47-53.82L961.47-53.82L961.47-53.82Q954.88-60.03 945.02-60.03L945.02-60.03ZM1014.27 0.64L1014.27 0.64Q1006.08 0.64 998.59-1.73L998.59-1.73L998.59-1.73Q991.10-4.10 986.88-7.68L986.88-7.68L990.98-14.85L990.98-14.85Q995.20-11.52 1001.60-9.41L1001.60-9.41L1001.60-9.41Q1008-7.30 1014.91-7.30L1014.91-7.30L1014.91-7.30Q1024.13-7.30 1028.54-10.18L1028.54-10.18L1028.54-10.18Q1032.96-13.06 1032.96-18.30L1032.96-18.30L1032.96-18.30Q1032.96-22.02 1030.53-24.13L1030.53-24.13L1030.53-24.13Q1028.10-26.24 1024.38-27.33L1024.38-27.33L1024.38-27.33Q1020.67-28.42 1014.53-29.44L1014.53-29.44L1014.53-29.44Q1006.34-30.98 1001.34-32.58L1001.34-32.58L1001.34-32.58Q996.35-34.18 992.83-38.02L992.83-38.02L992.83-38.02Q989.31-41.86 989.31-48.64L989.31-48.64L989.31-48.64Q989.31-57.09 996.35-62.46L996.35-62.46L996.35-62.46Q1003.39-67.84 1015.94-67.84L1015.94-67.84L1015.94-67.84Q1022.46-67.84 1028.99-66.11L1028.99-66.11L1028.99-66.11Q1035.52-64.38 1039.74-61.57L1039.74-61.57L1035.78-54.27L1035.78-54.27Q1027.46-60.03 1015.94-60.03L1015.94-60.03L1015.94-60.03Q1007.23-60.03 1002.82-56.96L1002.82-56.96L1002.82-56.96Q998.40-53.89 998.40-48.90L998.40-48.90L998.40-48.90Q998.40-45.06 1000.90-42.75L1000.90-42.75L1000.90-42.75Q1003.39-40.45 1007.10-39.36L1007.10-39.36L1007.10-39.36Q1010.82-38.27 1017.34-37.12L1017.34-37.12L1017.34-37.12Q1025.41-35.58 1030.27-34.05L1030.27-34.05L1030.27-34.05Q1035.14-32.51 1038.59-28.80L1038.59-28.80L1038.59-28.80Q1042.05-25.09 1042.05-18.56L1042.05-18.56L1042.05-18.56Q1042.05-9.73 1034.69-4.54L1034.69-4.54L1034.69-4.54Q1027.33 0.64 1014.27 0.64L1014.27 0.64Z" fill="url(#editing-gradient-gradient)"></path></g></g><style>text {
  font-size: 64px;
  font-family: Arial Black;
  dominant-baseline: central;
  text-anchor: middle;
}</style></svg>